<svg width="166" height="58" viewBox="0 0 166 58" fill="none" xmlns="http://www.w3.org/2000/svg">
<rect x="-3.8147e-06" y="53.9155" width="47.3935" height="4.08451" fill="black"/>
<rect x="4.34802" y="22.0563" width="35.9437" height="4.34802" transform="rotate(90 4.34802 22.0563)" fill="black"/>
<rect width="32.1603" height="4.21832" transform="matrix(-0.728848 0.684675 -0.728848 -0.684675 26.5145 2.88818)" fill="black"/>
<path d="M20.4357 2.88818L43.8757 24.9075L46.9502 22.0193L23.5102 -2.25716e-06L20.4357 2.88818Z" fill="black"/>
<path d="M46.9502 22.0193L46.9502 27.7746L43.8757 24.9075L46.9502 22.0193Z" fill="black"/>
<path d="M89.7597 58H84.9597V43.6H61.4877V38.8H84.9597V24.4H89.7597V58ZM59.0877 58H54.2877V24.4H59.0877V58ZM125.536 31.6V44.8C125.536 46.624 125.184 48.336 124.48 49.936C123.808 51.536 122.864 52.944 121.648 54.16C120.464 55.344 119.072 56.288 117.472 56.992C115.904 57.664 114.208 58 112.384 58H109.744C107.92 58 106.208 57.664 104.608 56.992C103.04 56.288 101.648 55.328 100.432 54.112C99.2482 52.896 98.3042 51.504 97.6002 49.936C96.9282 48.336 96.5922 46.624 96.5922 44.8V31.6H101.392V44.8C101.392 46.336 101.76 47.744 102.496 49.024C103.264 50.304 104.272 51.328 105.52 52.096C106.8 52.832 108.208 53.2 109.744 53.2H112.384C113.952 53.2 115.36 52.832 116.608 52.096C117.856 51.328 118.848 50.304 119.584 49.024C120.352 47.744 120.736 46.336 120.736 44.8V31.6H125.536ZM163.241 50.128C163.241 51.6 162.873 52.928 162.137 54.112C161.433 55.296 160.489 56.24 159.305 56.944C158.121 57.648 156.793 58 155.321 58H139.145V53.152H155.321C156.185 53.152 156.905 52.864 157.481 52.288C158.089 51.68 158.393 50.96 158.393 50.128C158.393 49.264 158.089 48.544 157.481 47.968C156.905 47.36 156.185 47.056 155.321 47.056H139.145V42.208H151.385C152.313 42.144 153.097 41.84 153.737 41.296C154.409 40.752 154.745 40.08 154.745 39.28C154.745 38.448 154.441 37.76 153.833 37.216C153.257 36.64 152.553 36.352 151.721 36.352H136.889V58H131.993V31.504H151.721C153.161 31.504 154.473 31.856 155.657 32.56C156.873 33.232 157.833 34.16 158.537 35.344C159.241 36.528 159.593 37.84 159.593 39.28C159.593 39.952 159.497 40.592 159.305 41.2C159.145 41.808 158.905 42.384 158.585 42.928C159.961 43.536 161.081 44.496 161.945 45.808C162.809 47.088 163.241 48.528 163.241 50.128Z" fill="#FF740F"/>
</svg>
